<svg width="238" height="22" viewBox="0 0 238 22" fill="none" xmlns="http://www.w3.org/2000/svg">
<mask id="path-1-inside-1_107_84" fill="white">
<path d="M182 5C182 2.23858 184.191 0 187 0H232.915C235.723 0 238 2.23858 238 5V17C238 19.7614 235.723 22 232.915 22H187C184.191 22 182 19.7614 182 17V5Z"/>
<path d="M121.034 5C121.034 2.23858 123.311 0 126.12 0H173C175.809 0 178 2.23858 178 5V17C178 19.7614 175.809 22 173 22H126.12C123.311 22 121.034 19.7614 121.034 17V5Z"/>
<path d="M60 5C60 2.23858 62.1914 0 65 0H111.88C114.689 0 116.966 2.23858 116.966 5V17C116.966 19.7614 114.689 22 111.88 22H65C62.1914 22 60 19.7614 60 17V5Z"/>
<path d="M0 5C0 2.23858 2.27684 0 5.08547 0H51C53.8086 0 56 2.23858 56 5V17C56 19.7614 53.8086 22 51 22H5.08547C2.27684 22 0 19.7614 0 17V5Z"/>
</mask>
<path d="M182 5C182 2.23858 184.191 0 187 0H232.915C235.723 0 238 2.23858 238 5V17C238 19.7614 235.723 22 232.915 22H187C184.191 22 182 19.7614 182 17V5Z" fill="#0D6EFD"/>
<path d="M121.034 5C121.034 2.23858 123.311 0 126.12 0H173C175.809 0 178 2.23858 178 5V17C178 19.7614 175.809 22 173 22H126.12C123.311 22 121.034 19.7614 121.034 17V5Z" fill="#0D6EFD"/>
<path d="M60 5C60 2.23858 62.1914 0 65 0H111.88C114.689 0 116.966 2.23858 116.966 5V17C116.966 19.7614 114.689 22 111.88 22H65C62.1914 22 60 19.7614 60 17V5Z" fill="#0D6EFD"/>
<path d="M0 5C0 2.23858 2.27684 0 5.08547 0H51C53.8086 0 56 2.23858 56 5V17C56 19.7614 53.8086 22 51 22H5.08547C2.27684 22 0 19.7614 0 17V5Z" fill="#0D6EFD"/>
<path d="M182.5 5C182.5 2.51163 184.471 0.5 187 0.5V-0.5C183.912 -0.5 181.5 1.96552 181.5 5H182.5ZM187 0.5H232.915V-0.5H187V0.5ZM232.915 0.5C235.455 0.5 237.5 2.52267 237.5 5H238.5C238.5 1.95448 235.991 -0.5 232.915 -0.5V0.5ZM237.5 5V17H238.5V5H237.5ZM237.5 17C237.5 19.4773 235.455 21.5 232.915 21.5V22.5C235.991 22.5 238.5 20.0455 238.5 17H237.5ZM232.915 21.5H187V22.5H232.915V21.5ZM187 21.5C184.471 21.5 182.5 19.4884 182.5 17H181.5C181.5 20.0345 183.912 22.5 187 22.5V21.5ZM182.5 17V5H181.5V17H182.5ZM121.534 5C121.534 2.52268 123.579 0.5 126.12 0.5V-0.5C123.043 -0.5 120.534 1.95448 120.534 5H121.534ZM126.12 0.5H173V-0.5H126.12V0.5ZM173 0.5C175.529 0.5 177.5 2.51163 177.5 5H178.5C178.5 1.96552 176.088 -0.5 173 -0.5V0.5ZM177.5 5V17H178.5V5H177.5ZM177.5 17C177.5 19.4884 175.529 21.5 173 21.5V22.5C176.088 22.5 178.5 20.0345 178.5 17H177.5ZM173 21.5H126.12V22.5H173V21.5ZM126.12 21.5C123.579 21.5 121.534 19.4773 121.534 17H120.534C120.534 20.0455 123.043 22.5 126.12 22.5V21.5ZM121.534 17V5H120.534V17H121.534ZM60.5 5C60.5 2.51163 62.4706 0.5 65 0.5V-0.5C61.9122 -0.5 59.5 1.96552 59.5 5H60.5ZM65 0.5H111.88V-0.5H65V0.5ZM111.88 0.5C114.421 0.5 116.466 2.52267 116.466 5H117.466C117.466 1.95448 114.957 -0.5 111.88 -0.5V0.5ZM116.466 5V17H117.466V5H116.466ZM116.466 17C116.466 19.4773 114.421 21.5 111.88 21.5V22.5C114.957 22.5 117.466 20.0455 117.466 17H116.466ZM111.88 21.5H65V22.5H111.88V21.5ZM65 21.5C62.4706 21.5 60.5 19.4884 60.5 17H59.5C59.5 20.0345 61.9122 22.5 65 22.5V21.5ZM60.5 17V5H59.5V17H60.5ZM0.5 5C0.5 2.52268 2.54496 0.5 5.08547 0.5V-0.5C2.00872 -0.5 -0.5 1.95448 -0.5 5H0.5ZM5.08547 0.5H51V-0.5H5.08547V0.5ZM51 0.5C53.5294 0.5 55.5 2.51163 55.5 5H56.5C56.5 1.96552 54.0878 -0.5 51 -0.5V0.5ZM55.5 5V17H56.5V5H55.5ZM55.5 17C55.5 19.4884 53.5294 21.5 51 21.5V22.5C54.0878 22.5 56.5 20.0345 56.5 17H55.5ZM51 21.5H5.08547V22.5H51V21.5ZM5.08547 21.5C2.54496 21.5 0.5 19.4773 0.5 17H-0.5C-0.5 20.0455 2.00872 22.5 5.08547 22.5V21.5ZM0.5 17V5H-0.5V17H0.5Z" fill="black" mask="url(#path-1-inside-1_107_84)"/>
</svg>
